Coordinates
version=1
nRows=14
nColumns=36
inDegrees=yes

Units are S.I. units (second, meters, Newtons, ...)
If the header above contains a line with 'inDegrees', this indicates whether rotational values are in degrees (yes) or radians (no).

endheader
time	pelvis_tilt	pelvis_list	pelvis_rotation	pelvis_tx	pelvis_ty	pelvis_tz	hip_flexion_r	hip_adduction_r	hip_rotation_r	knee_angle_r	knee_angle_r_beta	ankle_angle_r	subtalar_angle_r	mtp_angle_r	hip_flexion_l	hip_adduction_l	hip_rotation_l	knee_angle_l	knee_angle_l_beta	ankle_angle_l	subtalar_angle_l	mtp_angle_l	lumbar_extension	lumbar_bending	lumbar_rotation	arm_flex_r	arm_add_r	arm_rot_r	elbow_flex_r	pro_sup_r	arm_flex_l	arm_add_l	arm_rot_l	elbow_flex_l	pro_sup_l
      4.20000000	     -7.58267799	     -1.47976443	     20.25786329	      1.02226409	      1.04331697	     -0.30637289	     12.26670541	     -9.56695845	    -18.54514978	      5.87531012	      0.10254351	      0.66549907	     -4.84387137	     -7.49999987	      6.01587889	     -3.43943731	    -29.49918795	      3.76547361	      0.06571991	      4.45210324	     -0.59212077	     -7.49999987	     -0.62473126	     -5.17485166	     12.46122564	     -9.93176617	    -50.04987130	     41.10452602	     84.44862121	     81.02071020	    -46.73892856	    -47.71240205	     18.32713539	     93.71679314	     70.00019267
      4.21666670	     -7.43961028	     -1.42126563	     20.33855262	      1.02624557	      1.04372862	     -0.30816260	     11.22228587	     -9.40887423	    -18.75637126	      4.46878868	      0.07799508	      0.05257130	     -4.98173891	     -7.49999987	      5.25883908	     -3.15900577	    -29.36662897	      2.83991231	      0.04956582	      4.14114721	     -0.74699557	     -7.49999987	     -0.34586317	     -5.11239308	     11.95194067	     -9.44363237	    -49.71090823	     41.41198652	     83.74164045	     80.10926429	    -46.17435484	    -47.66070373	     18.56852998	     93.42475591	     69.58589414
      4.23333330	     -7.17762785	     -1.29307752	     20.35931580	      1.02595002	      1.04487788	     -0.30758808	     10.23919194	     -9.29408541	    -18.86608339	      3.35979016	      0.05863940	     -0.34955656	     -5.19897496	     -7.49999987	      4.54617015	     -2.95242141	    -29.31003880	      2.24281748	      0.03914455	      4.01083201	     -0.90285215	     -7.49999987	     -0.44931984	     -5.07613998	     11.28465986	     -8.46428304	    -49.33968996	     41.96738354	     83.11012469	     79.78915432	    -45.43365471	    -47.51403999	     19.11718977	     93.00242205	     69.45755033
      4.25000000	     -7.02948807	     -1.18580508	     20.36481112	      1.03012127	      1.04519935	     -0.30930511	      9.45304697	     -9.23606583	    -18.96429722	      2.41886493	      0.04221716	     -0.84834664	     -5.59690357	     -7.49999987	      3.94154120	     -2.73606523	    -29.07971989	      1.69037540	      0.02950262	      3.70314917	     -1.41073081	     -7.49999987	     -0.33158021	     -5.00298973	     10.54377759	     -7.36577539	    -48.89250661	     42.96838572	     82.32361936	     78.55815090	    -44.81680880	    -47.27820345	     19.69581415	     92.42661830	     68.82813782
      4.26666670	     -6.96749015	     -1.05445194	     20.28046290	      1.03011222	      1.04163591	     -0.30923630	      8.92213538	     -9.24146071	    -19.11535278	      1.71140468	      0.02986965	     -1.11168081	     -5.57864684	     -7.49999987	      3.53622679	     -2.50253654	    -29.02437162	      1.31858398	      0.02301363	      3.71603931	     -1.57078247	     -7.49999987	     -0.00669676	     -5.04370991	      8.72057014	     -3.64355266	    -48.55399342	     46.87474810	     80.98775517	     83.36871013	    -45.89687531	    -45.79045420	     18.16151053	     91.60734753	     71.73207806
      4.28333330	     -6.79846680	     -1.04437843	     20.23982747	      1.03315921	      1.04604672	     -0.30616267	      8.36036161	     -9.07007962	    -19.22658783	      1.14113018	      0.01991648	     -1.27639849	     -5.64279823	     -7.49999987	      3.14050360	     -2.54155300	    -29.07846034	      1.07072382	      0.01868766	      3.67464312	     -1.71645481	     -7.49999987	      0.01845715	     -4.93618007	      8.17661441	     -3.30617023	    -48.00279553	     46.79596286	     80.43943274	     83.42538555	    -45.38711432	    -45.55681858	     18.41143234	     91.25911914	     71.79507234
      4.30000000	     -6.58454202	     -0.86596104	     20.19431552	      1.02960972	      1.04837872	     -0.30897728	      7.94689179	     -9.14643909	    -19.27977169	      0.94900149	      0.01656320	     -1.49115527	     -5.95755529	     -7.49999987	      2.75555049	     -2.39180262	    -28.91362428	      0.91920914	      0.01604323	      3.56729007	     -2.15674194	     -7.49999987	     -0.11382332	     -4.87972547	      7.61759255	     -2.23099884	    -47.62900604	     47.73838635	     79.92589183	     84.25425279	    -44.49212548	    -45.43551320	     19.09772666	     90.73011116	     72.06105959
      4.31666670	     -6.33765226	     -0.73314475	     20.13459253	      1.03308258	      1.04928879	     -0.31010023	      7.50446373	     -9.14567938	    -19.26156058	      0.77526703	      0.01353096	     -1.66445480	     -6.28171379	     -7.49999987	      2.36130071	     -2.34067380	    -28.97718404	      0.83246517	      0.01452926	      3.50721711	     -2.43185654	     -7.49999987	     -0.29782041	     -4.86551175	      6.62020232	     -0.65378384	    -46.98978192	     49.12315649	     79.00038200	     86.08279256	    -44.41618921	    -44.60883947	     18.70777767	     90.21333880	     72.13146904
      4.33333330	     -6.14984603	     -0.55391360	     20.11724672	      1.02882357	      1.05551638	     -0.30811919	      7.21160357	     -9.24755739	    -19.41942615	      0.69747650	      0.01217326	     -1.80503101	     -6.46092559	     -7.49999987	      2.11985095	     -2.24081699	    -29.10361797	      0.80185788	      0.01399506	      3.25159672	     -2.72050743	     -7.49999987	     -0.67650946	     -4.89724861	      6.04680493	     -0.20712663	    -46.35810215	     48.95103179	     78.56476434	     86.17436965	    -43.59701968	    -44.38008066	     18.98124190	     89.76932444	     72.23776518
      4.35000000	     -6.00298988	     -0.39485589	     20.06336308	      1.02854414	      1.05328729	     -0.30727991	      6.99604228	     -9.33347516	    -19.46895528	      0.63801771	      0.01113551	     -1.90907637	     -6.74747745	     -7.49999987	      1.92677979	     -2.13447192	    -29.06166916	      0.78540439	      0.01370789	      2.90617433	     -3.29526256	     -7.49999987	     -0.90120492	     -4.84807553	      5.57075897	      0.38738215	    -45.93537700	     49.19943116	     78.22446836	     88.62253481	    -42.62563085	    -44.28173144	     19.59600302	     89.28827385	     73.28728757
      4.36666670	     -5.86378773	     -0.23347443	     19.97445693	      1.02869176	      1.05142010	     -0.30700400	      6.83476302	     -9.42496639	    -19.35079219	      0.59547710	      0.01039304	     -2.05217386	     -7.05615972	     -7.49999987	      1.74524864	     -2.03440319	    -29.21659805	      0.77822066	      0.01358251	      2.64982448	     -3.63699215	     -7.49999987	     -1.22377592	     -4.85751395	      5.18799607	      0.56783530	    -45.66722286	     49.04205896	     78.19942888	     89.09052301	    -42.01240716	    -44.23004605	     19.81456782	     89.20086346	     73.08628655
      4.38333330	     -5.70231319	     -0.12740756	     19.92136787	      1.02872669	      1.05314086	     -0.30665613	      6.67513737	     -9.46867219	    -19.39141547	      0.57773848	      0.01008344	     -2.05731849	     -7.04402726	     -7.49999987	      1.56631703	     -1.99749580	    -29.23664807	      0.75272514	      0.01313753	      2.49151706	     -3.91869022	     -7.49999987	     -1.48218784	     -4.76104603	      4.77858074	      1.04168515	    -45.41175494	     49.25300968	     77.98549437	     90.49637925	    -41.25654029	    -44.10771707	     20.13233970	     89.02144687	     73.37829449
      4.40000000	     -5.69304955	     -0.10768285	     19.91253670	      1.03242374	      1.05140543	     -0.30376330	      6.65623806	     -9.46402609	    -19.34763783	      0.55338138	      0.00965833	     -2.02516973	     -7.03454863	     -7.49999987	      1.54236832	     -2.02584768	    -29.40195606	      0.73392156	      0.01280935	      2.43557497	     -3.99511814	     -7.49999987	     -1.49343451	     -4.70694422	      4.45221139	      1.07162380	    -45.33735625	     49.24708324	     78.01568125	     90.49992317	    -40.93809609	    -44.16472111	     20.05847582	     89.13327570	     73.38445667
      4.41666670	     -5.57680662	     -0.05998884	     19.84732348	      1.03656863	      1.04893471	     -0.30534408	      6.50982001	     -9.45232754	    -19.26405970	      0.52194603	      0.00910968	     -1.92113310	     -7.03011942	     -7.49999987	      1.36150241	     -2.04942764	    -29.51441984	      0.72776331	      0.01270187	      2.34744133	     -4.09370286	     -7.49999987	     -1.53968845	     -4.61863805	      4.17096500	      1.23759778	    -45.23620785	     49.23188783	     78.07425791	     90.52042517	    -40.56039264	    -44.15716864	     20.10317435	     89.34469153	     73.41066971
